<svg width="15" height="21" viewBox="0 0 15 21" fill="none" xmlns="http://www.w3.org/2000/svg">
<path d="M7.71696 14.8726L7.56688 14.7521C7.51111 14.714 7.45055 14.6836 7.38679 14.6616L7.20669 14.5813C7.04443 14.5472 6.87628 14.5542 6.71736 14.6015C6.55844 14.6489 6.41372 14.7351 6.29622 14.8525C6.20784 14.9502 6.13678 15.0623 6.08611 15.1841C6.01039 15.3671 5.99029 15.5686 6.02834 15.7631C6.06638 15.9576 6.16087 16.1365 6.29992 16.2772C6.43896 16.4179 6.61635 16.5141 6.80975 16.5538C7.00315 16.5935 7.20392 16.5749 7.38679 16.5002C7.50635 16.442 7.61743 16.3676 7.71696 16.2792C7.85579 16.1379 7.94984 15.9585 7.98723 15.7636C8.02462 15.5687 8.00369 15.3671 7.92707 15.1841C7.87719 15.0679 7.8059 14.9622 7.71696 14.8726ZM11.0087 0.515442H3.0045C2.20843 0.515442 1.44497 0.832999 0.882069 1.39825C0.319166 1.96351 0.00292969 2.73016 0.00292969 3.52955V17.5954C0.00292969 18.3948 0.319166 19.1614 0.882069 19.7267C1.44497 20.2919 2.20843 20.6095 3.0045 20.6095H11.0087C11.8047 20.6095 12.5682 20.2919 13.1311 19.7267C13.694 19.1614 14.0102 18.3948 14.0103 17.5954V3.52955C14.0102 2.73016 13.694 1.96351 13.1311 1.39825C12.5682 0.832999 11.8047 0.515442 11.0087 0.515442ZM12.0092 17.5954C12.0092 17.8618 11.9038 18.1174 11.7162 18.3058C11.5285 18.4942 11.274 18.6001 11.0087 18.6001H3.0045C2.73914 18.6001 2.48466 18.4942 2.29702 18.3058C2.10939 18.1174 2.00398 17.8618 2.00398 17.5954V3.52955C2.00398 3.26308 2.10939 3.00753 2.29702 2.81912C2.48466 2.6307 2.73914 2.52485 3.0045 2.52485H11.0087C11.274 2.52485 11.5285 2.6307 11.7162 2.81912C11.9038 3.00753 12.0092 3.26308 12.0092 3.52955V17.5954Z" fill="black"/>
</svg>
