<svg width="30" height="20" viewBox="0 0 30 20" fill="none" xmlns="http://www.w3.org/2000/svg">
<mask id="mask0_1284_694" style="mask-type:alpha" maskUnits="userSpaceOnUse" x="0" y="0" width="30" height="20">
<path d="M27.1429 0H2.85714C1.27919 0 0 1.19391 0 2.66667V17.3333C0 18.8061 1.27919 20 2.85714 20H27.1429C28.7208 20 30 18.8061 30 17.3333V2.66667C30 1.19391 28.7208 0 27.1429 0Z" fill="white"/>
</mask>
<g mask="url(#mask0_1284_694)">
<path d="M27.1429 0H2.85714C1.27919 0 0 1.19391 0 2.66667V17.3333C0 18.8061 1.27919 20 2.85714 20H27.1429C28.7208 20 30 18.8061 30 17.3333V2.66667C30 1.19391 28.7208 0 27.1429 0Z" fill="white"/>
<path fill-rule="evenodd" clip-rule="evenodd" d="M0 0H30V10.6667H0V0Z" fill="#D0091E"/>
<path d="M27.1434 0.666992H2.8577C1.67423 0.666992 0.714844 1.56242 0.714844 2.66699V17.3337C0.714844 18.4382 1.67423 19.3337 2.8577 19.3337H27.1434C28.3269 19.3337 29.2863 18.4382 29.2863 17.3337V2.66699C29.2863 1.56242 28.3269 0.666992 27.1434 0.666992Z" stroke="black" stroke-opacity="0.1"/>
</g>
</svg>
