<svg width="21" height="17" viewBox="0 0 21 17" fill="none" xmlns="http://www.w3.org/2000/svg">
<path d="M17.0099 0.872131H3.00255C2.20648 0.872131 1.44302 1.18969 0.880116 1.75494C0.317212 2.3202 0.000976563 3.08685 0.000976562 3.88624V13.9333C0.000976563 14.7326 0.317212 15.4993 0.880116 16.0646C1.44302 16.6298 2.20648 16.9474 3.00255 16.9474H17.0099C17.8059 16.9474 18.5694 16.6298 19.1323 16.0646C19.6952 15.4993 20.0114 14.7326 20.0114 13.9333V3.88624C20.0114 3.08685 19.6952 2.3202 19.1323 1.75494C18.5694 1.18969 17.8059 0.872131 17.0099 0.872131ZM3.00255 2.88154H17.0099C17.2752 2.88154 17.5297 2.98739 17.7173 3.17581C17.905 3.36422 18.0104 3.61977 18.0104 3.88624L10.0062 8.78918L2.00202 3.88624C2.00202 3.61977 2.10743 3.36422 2.29507 3.17581C2.4827 2.98739 2.73719 2.88154 3.00255 2.88154ZM18.0104 13.9333C18.0104 14.1997 17.905 14.4553 17.7173 14.6437C17.5297 14.8321 17.2752 14.938 17.0099 14.938H3.00255C2.73719 14.938 2.4827 14.8321 2.29507 14.6437C2.10743 14.4553 2.00202 14.1997 2.00202 13.9333V6.17696L9.48593 10.7684C9.63803 10.8566 9.81057 10.903 9.9862 10.903C10.1618 10.903 10.3344 10.8566 10.4865 10.7684L18.0104 6.17696V13.9333Z" fill="black"/>
</svg>
